<?xml version="1.0" encoding="utf-8"?>
<!-- Generator: Adobe Illustrator 19.2.1, SVG Export Plug-In . SVG Version: 6.00 Build 0)  -->
<svg version="1.1" id="圖層_1" xmlns="http://www.w3.org/2000/svg" xmlns:xlink="http://www.w3.org/1999/xlink" x="0px" y="0px"
	 viewBox="0 0 88 26" style="enable-background:new 0 0 88 26;" xml:space="preserve">
<style type="text/css">
	.st0{fill:#FFFFFF;}
</style>
<g id="Group">
	<path id="Shape" d="M87.1,22.9c0,1.4-1.1,2.5-2.5,2.5H3.1c-1.4,0-2.5-1.1-2.5-2.5V3.1c0-1.4,1.1-2.5,2.5-2.5h81.6
		c1.4,0,2.5,1.1,2.5,2.5L87.1,22.9L87.1,22.9z"/>
	<g id="Shape_1_" transform="translate(7.800000, 3.900000)">
		<path class="st0" d="M11.8,9c0-2.1,1.7-3.1,1.8-3.2c-1-1.4-2.5-1.6-3-1.6C9.3,4,8,4.9,7.4,4.9c-0.7,0-1.7-0.8-2.7-0.7
			C3.2,4.2,1.9,5,1.2,6.3c-1.5,2.5-0.4,6.3,1,8.4c0.7,1,1.5,2.1,2.6,2.1c1.1,0,1.5-0.7,2.7-0.7c1.3,0,1.6,0.7,2.7,0.6
			c1.1,0,1.8-1,2.5-2c0.8-1.2,1.1-2.3,1.2-2.4C14,12.3,11.8,11.5,11.8,9z"/>
		<path class="st0" d="M9.7,2.8c0.6-0.7,1-1.7,0.8-2.7c-0.8,0-1.9,0.6-2.4,1.3C7.6,2,7.1,3,7.2,4C8.2,4,9.1,3.5,9.7,2.8z"/>
	</g>
	<g id="Shape_2_" transform="translate(27.300000, 9.700000)">
		<path class="st0" d="M7.6,8.8H6.1L5.3,6.2H2.5L1.7,8.8H0.3l2.8-8.7h1.7L7.6,8.8z M5,5.2L4.3,2.9C4.2,2.7,4.1,2.1,3.9,1.3h0
			C3.8,1.7,3.6,2.2,3.4,2.9L2.7,5.2H5L5,5.2z"/>
		<path class="st0" d="M14.7,5.6c0,1.1-0.3,1.9-0.9,2.5c-0.5,0.5-1.2,0.8-1.9,0.8c-0.8,0-1.4-0.3-1.8-0.9h0v3.3H8.8V4.6
			c0-0.7,0-1.4-0.1-2.1h1.2l0.1,1h0c0.5-0.7,1.2-1.1,2.1-1.1c0.7,0,1.4,0.3,1.8,0.9C14.5,3.9,14.7,4.6,14.7,5.6z M13.3,5.6
			c0-0.6-0.1-1.1-0.4-1.5c-0.3-0.4-0.7-0.6-1.2-0.6c-0.3,0-0.7,0.1-0.9,0.3c-0.3,0.2-0.5,0.5-0.5,0.9c0,0.2-0.1,0.3-0.1,0.4v1
			c0,0.5,0.1,0.8,0.4,1.1c0.3,0.3,0.6,0.5,1.1,0.5c0.5,0,0.9-0.2,1.2-0.6C13.2,6.8,13.3,6.3,13.3,5.6z"/>
		<path class="st0" d="M21.9,5.6c0,1.1-0.3,1.9-0.9,2.5c-0.5,0.5-1.2,0.8-1.9,0.8c-0.8,0-1.4-0.3-1.8-0.9h0v3.3h-1.4V4.6
			c0-0.7,0-1.4-0.1-2.1h1.2l0.1,1h0c0.5-0.7,1.2-1.1,2.1-1.1c0.7,0,1.3,0.3,1.8,0.9C21.7,3.9,21.9,4.6,21.9,5.6z M20.5,5.6
			c0-0.6-0.1-1.1-0.4-1.5c-0.3-0.4-0.7-0.6-1.2-0.6c-0.3,0-0.7,0.1-0.9,0.3c-0.3,0.2-0.5,0.5-0.5,0.9c0,0.2-0.1,0.3-0.1,0.4v1
			c0,0.5,0.1,0.8,0.4,1.1c0.3,0.3,0.6,0.5,1.1,0.5c0.5,0,0.9-0.2,1.2-0.6C20.3,6.8,20.5,6.3,20.5,5.6z"/>
		<path class="st0" d="M29.9,6.4c0,0.7-0.3,1.3-0.8,1.8c-0.6,0.5-1.3,0.8-2.4,0.8c-0.9,0-1.7-0.2-2.2-0.5l0.3-1.2
			c0.6,0.4,1.3,0.6,2,0.6c0.5,0,0.9-0.1,1.2-0.4c0.3-0.2,0.4-0.6,0.4-0.9c0-0.4-0.1-0.6-0.4-0.9c-0.2-0.2-0.6-0.5-1.2-0.7
			c-1.5-0.6-2.3-1.4-2.3-2.5c0-0.7,0.3-1.3,0.8-1.7C26,0.2,26.7,0,27.6,0c0.8,0,1.4,0.1,2,0.4l-0.3,1.1c-0.5-0.3-1-0.4-1.7-0.4
			c-0.5,0-0.9,0.1-1.1,0.4c-0.2,0.2-0.3,0.5-0.3,0.8c0,0.3,0.1,0.6,0.4,0.8c0.2,0.2,0.6,0.4,1.3,0.7c0.7,0.3,1.3,0.7,1.6,1.1
			C29.8,5.3,29.9,5.8,29.9,6.4z"/>
		<path class="st0" d="M34.5,3.6H33v3c0,0.8,0.3,1.2,0.8,1.2c0.2,0,0.5,0,0.6-0.1l0,1.1c-0.3,0.1-0.6,0.2-1.1,0.2
			c-0.5,0-1-0.2-1.3-0.5c-0.3-0.3-0.5-0.9-0.5-1.7V3.6h-0.9v-1h0.9V1.4L33,1v1.6h1.5V3.6z"/>
		<path class="st0" d="M41.4,5.6c0,1-0.3,1.7-0.8,2.4c-0.6,0.6-1.3,0.9-2.3,0.9c-0.9,0-1.6-0.3-2.2-0.9c-0.5-0.6-0.8-1.4-0.8-2.3
			c0-1,0.3-1.8,0.8-2.4c0.6-0.6,1.3-0.9,2.3-0.9c0.9,0,1.7,0.3,2.2,0.9C41.1,3.9,41.4,4.7,41.4,5.6z M40,5.7c0-0.6-0.1-1.1-0.4-1.5
			c-0.3-0.5-0.7-0.7-1.2-0.7c-0.6,0-1,0.2-1.3,0.7c-0.2,0.4-0.4,0.9-0.4,1.5c0,0.6,0.1,1.1,0.4,1.5c0.3,0.5,0.7,0.7,1.3,0.7
			c0.5,0,0.9-0.3,1.2-0.8C39.8,6.7,40,6.2,40,5.7z"/>
		<path class="st0" d="M45.9,3.8c-0.1,0-0.3,0-0.4,0c-0.5,0-0.9,0.2-1.1,0.6C44.1,4.6,44,5,44,5.5v3.3h-1.4l0-4.3c0-0.7,0-1.4-0.1-2
			h1.2l0.1,1.2h0c0.1-0.4,0.4-0.7,0.7-1c0.3-0.2,0.6-0.3,1-0.3c0.1,0,0.2,0,0.3,0V3.8z"/>
		<path class="st0" d="M52.1,5.4c0,0.2,0,0.5-0.1,0.6h-4.2c0,0.6,0.2,1.1,0.6,1.4c0.4,0.3,0.8,0.4,1.4,0.4c0.6,0,1.2-0.1,1.7-0.3
			l0.2,1c-0.6,0.3-1.3,0.4-2.1,0.4c-1,0-1.7-0.3-2.3-0.9c-0.6-0.6-0.8-1.3-0.8-2.3c0-0.9,0.3-1.7,0.8-2.3c0.5-0.7,1.3-1,2.2-1
			c0.9,0,1.6,0.3,2,1C51.9,3.9,52.1,4.6,52.1,5.4z M50.8,5c0-0.4-0.1-0.8-0.3-1.1c-0.2-0.4-0.6-0.6-1.1-0.6c-0.5,0-0.8,0.2-1.1,0.6
			c-0.2,0.3-0.4,0.7-0.4,1.1L50.8,5L50.8,5z"/>
	</g>
</g>
</svg>
