<?xml version="1.0" encoding="utf-8"?>
<!-- Generator: Adobe Illustrator 19.2.1, SVG Export Plug-In . SVG Version: 6.00 Build 0)  -->
<svg version="1.1" id="圖層_1" xmlns="http://www.w3.org/2000/svg" xmlns:xlink="http://www.w3.org/1999/xlink" x="0px" y="0px"
	 viewBox="0 0 87 26" style="enable-background:new 0 0 87 26;" xml:space="preserve">
<style type="text/css">
	.st0{fill:url(#Shape_17_);}
	.st1{fill:url(#Shape_18_);}
	.st2{fill:url(#Shape_19_);}
	.st3{fill:url(#Shape_20_);}
	.st4{fill:#F9F9F9;}
</style>
<g id="圖層_1_1_">
	<path id="Shape" d="M86.1,22.2c0,1.9-1.7,3.4-3.8,3.4H3.9c-2.1,0-3.8-1.5-3.8-3.4V3.9c0-1.9,1.7-3.4,3.8-3.4h78.4
		c2.1,0,3.8,1.5,3.8,3.4V22.2L86.1,22.2z"/>
	<g id="PLAY_2_" transform="translate(5.652174, 5.086957)">
		
			<linearGradient id="Shape_17_" gradientUnits="userSpaceOnUse" x1="-187.1729" y1="150.9303" x2="-187.1729" y2="149.9303" gradientTransform="matrix(8.5907 0 0 -17.0368 1612.4816 2571.613)">
			<stop  offset="0" style="stop-color:#257CB0"/>
			<stop  offset="0.2863" style="stop-color:#4A93B5"/>
			<stop  offset="0.767" style="stop-color:#78BCBB"/>
			<stop  offset="1" style="stop-color:#89CFBD"/>
		</linearGradient>
		<polygon id="Shape_1_" class="st0" points="0.2,0.2 0.2,8.8 0.2,17.3 8.8,8.8 		"/>
		
			<linearGradient id="Shape_18_" gradientUnits="userSpaceOnUse" x1="-192.7495" y1="142.5612" x2="-191.7495" y2="142.5612" gradientTransform="matrix(10.898 0 0 -8.5794 2100.8091 1227.5682)">
			<stop  offset="0" style="stop-color:#52C1AD"/>
			<stop  offset="1" style="stop-color:#DEE89A"/>
		</linearGradient>
		<polygon id="Shape_2_" class="st1" points="11.1,6.5 7.7,4.5 0.2,0.2 0.2,0.2 8.8,8.8 		"/>
		
			<linearGradient id="Shape_19_" gradientUnits="userSpaceOnUse" x1="-192.2495" y1="143.0633" x2="-192.2495" y2="142.0633" gradientTransform="matrix(10.898 0 0 -8.5806 2100.8091 1236.3275)">
			<stop  offset="0" style="stop-color:#EC413D"/>
			<stop  offset="0.1668" style="stop-color:#DA4452"/>
			<stop  offset="0.5748" style="stop-color:#B0487A"/>
			<stop  offset="0.8619" style="stop-color:#954A92"/>
			<stop  offset="1" style="stop-color:#8A4A9D"/>
		</linearGradient>
		<polygon id="Shape_3_" class="st2" points="0.2,17.3 0.2,17.3 7.7,13.1 11.1,11.1 8.8,8.8 		"/>
		
			<linearGradient id="Shape_20_" gradientUnits="userSpaceOnUse" x1="-178.3" y1="129.1891" x2="-178.3" y2="128.1891" gradientTransform="matrix(6.2705 0 0 -4.5754 1129.9933 597.5726)">
			<stop  offset="0" style="stop-color:#F58879"/>
			<stop  offset="0.1194" style="stop-color:#F69079"/>
			<stop  offset="0.7128" style="stop-color:#FCB877"/>
			<stop  offset="1" style="stop-color:#FEC874"/>
		</linearGradient>
		<polygon id="Shape_4_" class="st3" points="11.1,6.5 8.8,8.8 11.1,11.1 15.1,8.8 		"/>
	</g>
	<path id="Shape_5_" class="st4" d="M66.6,17.7c-0.4,0-0.7-0.1-1-0.2c-0.3-0.1-0.6-0.3-0.8-0.6h-0.1c0,0.3,0.1,0.6,0.1,0.9V20H64
		v-7.9h0.7l0.1,0.7h0c0.2-0.3,0.5-0.5,0.8-0.6c0.3-0.1,0.6-0.2,1-0.2c0.8,0,1.3,0.2,1.7,0.7c0.4,0.5,0.6,1.2,0.6,2.1
		c0,0.9-0.2,1.6-0.6,2.1C68,17.4,67.4,17.7,66.6,17.7z M66.5,12.7c-0.6,0-1,0.2-1.3,0.5c-0.3,0.3-0.4,0.8-0.4,1.5v0.2
		c0,0.8,0.1,1.3,0.4,1.6c0.3,0.3,0.7,0.5,1.3,0.5c0.5,0,0.9-0.2,1.2-0.6c0.3-0.4,0.4-0.9,0.4-1.6c0-0.7-0.1-1.2-0.4-1.6
		C67.4,12.9,67,12.7,66.5,12.7z"/>
	<polygon id="Shape_6_" class="st4" points="71,18 70,18 70,10 71,10 	"/>
	<path id="Shape_7_" class="st4" d="M75.4,17.9l-0.2-0.8h0c-0.2,0.4-0.5,0.6-0.7,0.7C74.3,17.9,74,18,73.6,18
		c-0.5,0-0.9-0.1-1.2-0.4c-0.3-0.3-0.4-0.7-0.4-1.3c0-1.2,0.8-1.8,2.4-1.8l0.8,0v-0.4c0-0.5-0.1-0.8-0.3-1c-0.2-0.2-0.4-0.3-0.8-0.3
		c-0.4,0-0.9,0.1-1.4,0.4l-0.2-0.7c0.2-0.2,0.5-0.3,0.8-0.4C73.7,12,74,12,74.2,12c0.6,0,1,0.2,1.3,0.5c0.3,0.3,0.4,0.8,0.4,1.5v4
		H75.4L75.4,17.9z M73.7,17.3c0.5,0,0.8-0.2,1.1-0.4c0.3-0.3,0.4-0.7,0.4-1.3V15l-0.8,0c-0.6,0-1,0.1-1.3,0.3
		c-0.3,0.2-0.4,0.5-0.4,0.9c0,0.3,0.1,0.6,0.2,0.7C73.2,17.2,73.4,17.3,73.7,17.3z"/>
	<path id="Shape_8_" class="st4" d="M77,12h0.9l1.2,3.1c0.3,0.7,0.4,1.2,0.5,1.6h0c0-0.2,0.1-0.5,0.3-0.9c0.1-0.4,0.6-1.7,1.3-3.8
		H82l-2.3,6.3c-0.2,0.6-0.5,1.1-0.8,1.3c-0.3,0.3-0.7,0.4-1.1,0.4c-0.2,0-0.5,0-0.7-0.1v-0.7c0.2,0,0.4,0.1,0.6,0.1
		c0.6,0,0.9-0.3,1.2-1l0.3-0.8L77,12z"/>
	<path id="Shape_9_" class="st4" d="M50.5,12.4c0.3,0.2,0.9,0.7,0.9,1.6c0,0.9-0.5,1.3-1,1.7C50.2,15.9,50,16,50,16.3
		c0,0.3,0.2,0.4,0.3,0.5l0.4,0.3c0.5,0.4,1,0.8,1,1.7c0,1.1-1.1,2.2-3.2,2.2c-1.7,0-2.6-0.8-2.6-1.7c0-0.4,0.2-1,0.9-1.4
		c0.7-0.4,1.8-0.5,2.3-0.5c-0.2-0.2-0.4-0.4-0.4-0.8c0-0.2,0.1-0.3,0.1-0.5c-0.1,0-0.3,0-0.4,0c-1.3,0-2-0.9-2-1.9
		c0-0.5,0.3-1.1,0.8-1.6c0.7-0.6,1.5-0.6,2.2-0.6H52l-0.8,0.4L50.5,12.4L50.5,12.4z M49.6,17.7c-0.1,0-0.2,0-0.3,0
		c-0.1,0-0.8,0-1.3,0.2c-0.3,0.1-1,0.4-1,1.2c0,0.8,0.8,1.4,2.1,1.4c1.2,0,1.8-0.5,1.8-1.3C50.9,18.6,50.5,18.3,49.6,17.7z M50,15.4
		c0.3-0.3,0.3-0.6,0.3-0.9c0-0.9-0.5-2.2-1.5-2.2c-0.3,0-0.6,0.2-0.8,0.4c-0.2,0.2-0.3,0.6-0.3,0.9c0,0.8,0.5,2.1,1.5,2.1
		C49.5,15.8,49.8,15.6,50,15.4z"/>
	<path id="Shape_10_" class="st4" d="M43.9,18C42,18,41,16.4,41,15c0-1.6,1.3-3,3.1-3c1.8,0,2.9,1.4,2.9,3C47,16.4,45.9,18,43.9,18z
		 M45.4,17c0.3-0.4,0.4-0.9,0.4-1.4c0-1.1-0.5-3.2-2-3.2c-0.4,0-0.8,0.2-1.1,0.4c-0.5,0.4-0.6,1-0.6,1.5c0,1.2,0.6,3.3,2,3.3
		C44.7,17.6,45.2,17.4,45.4,17z"/>
	<path id="Shape_11_" class="st4" d="M36.9,18C35,18,34,16.4,34,15c0-1.6,1.3-3,3.1-3c1.8,0,2.9,1.4,2.9,3C40,16.4,38.9,18,36.9,18z
		 M38.4,17c0.3-0.4,0.4-0.9,0.4-1.4c0-1.1-0.5-3.2-2-3.2c-0.4,0-0.8,0.2-1.1,0.4c-0.5,0.4-0.6,1-0.6,1.5c0,1.2,0.6,3.3,2,3.3
		C37.7,17.6,38.2,17.4,38.4,17z"/>
	<path id="Shape_12_" class="st4" d="M32.6,17.4L31,17.8c-0.6,0.1-1.2,0.2-1.8,0.2c-3,0-4.2-2.5-4.2-4.4c0-2.4,1.6-4.6,4.4-4.6
		c0.6,0,1.2,0.1,1.7,0.3c0.8,0.3,1.2,0.6,1.5,0.8l-0.9,1l-0.4,0.1l0.3-0.5c-0.4-0.4-1.1-1.1-2.4-1.1c-1.7,0-3,1.5-3,3.6
		c0,2.3,1.5,4.5,3.9,4.5c0.7,0,1.1-0.2,1.4-0.3v-2l-1.7,0.1l0.9-0.5H33l-0.3,0.3c-0.1,0.1-0.1,0.1-0.1,0.2c0,0.1,0,0.5,0,0.6
		L32.6,17.4L32.6,17.4z"/>
	<path id="Shape_13_" class="st4" d="M54.4,16.7c-0.4,0-0.5-0.1-0.5-0.5V16V9.7c0,0,0,0,0-0.1c0-0.4,0.2-0.5,0.5-0.7h-1.6L52,9.4
		h0.9v0l0,0V16v0.4c0,0.2,0,0.3-0.3,0.6h2l0.4-0.2C54.8,16.7,54.6,16.7,54.4,16.7z"/>
	<path id="Shape_14_" class="st4" d="M59.4,17.5c-0.1,0.1-0.3,0.2-0.4,0.2c-0.4,0.2-0.8,0.2-1.2,0.2c-0.4,0-1,0-1.6-0.5
		c-0.8-0.6-1.2-1.7-1.2-2.6c0-1.9,1.5-2.9,2.7-2.9c0.4,0,0.9,0.1,1.2,0.3c0.6,0.4,0.8,0.9,0.8,1.2L57,14.8l-0.9,0.1
		c0.3,1.6,1.3,2.5,2.5,2.5c0.6,0,1.1-0.2,1.5-0.4L59.4,17.5z M58.2,13.8c0.2-0.1,0.3-0.2,0.3-0.3c0-0.5-0.5-1.1-1.2-1.1
		c-0.5,0-1.4,0.4-1.4,1.7c0,0.2,0,0.4,0,0.7L58.2,13.8z"/>
	<polygon id="Shape_15_" class="st4" points="60.5,12.1 60.5,13 60.4,13 60.4,12.1 60,12.1 60,12 60.9,12 60.9,12.1 	"/>
	<polygon id="Shape_16_" class="st4" points="61.9,13 61.9,12.1 61.9,12.1 61.6,13 61.5,13 61.1,12.1 61.1,12.1 61.1,13 61,13 
		61,12 61.2,12 61.5,12.8 61.5,12.8 61.8,12 62,12 62,13 	"/>
</g>
</svg>
